<?xml version="1.0" encoding="UTF-8" standalone="no"?>
<!-- Generator: Adobe Illustrator 19.0.0, SVG Export Plug-In . SVG Version: 6.00 Build 0)  -->

<svg
   xmlns:dc="http://purl.org/dc/elements/1.1/"
   xmlns:cc="http://creativecommons.org/ns#"
   xmlns:rdf="http://www.w3.org/1999/02/22-rdf-syntax-ns#"
   xmlns:svg="http://www.w3.org/2000/svg"
   xmlns="http://www.w3.org/2000/svg"
   xmlns:sodipodi="http://sodipodi.sourceforge.net/DTD/sodipodi-0.dtd"
   xmlns:inkscape="http://www.inkscape.org/namespaces/inkscape"
   version="1.1"
   id="Layer_1"
   x="0px"
   y="0px"
   viewBox="0 0 14.201944 16"
   xml:space="preserve"
   inkscape:version="0.91 r13725"
   sodipodi:docname="protected_by_parents.svg"
   width="14.201943"
   height="16"><metadata
     id="metadata49"><rdf:RDF><cc:Work
         rdf:about=""><dc:format>image/svg+xml</dc:format><dc:type
           rdf:resource="http://purl.org/dc/dcmitype/StillImage" /><dc:title></dc:title></cc:Work></rdf:RDF></metadata><defs
     id="defs47" /><sodipodi:namedview
     pagecolor="#ffffff"
     bordercolor="#666666"
     borderopacity="1"
     objecttolerance="10"
     gridtolerance="10"
     guidetolerance="10"
     inkscape:pageopacity="0"
     inkscape:pageshadow="2"
     inkscape:window-width="1920"
     inkscape:window-height="1167"
     id="namedview45"
     showgrid="false"
     fit-margin-top="0"
     fit-margin-left="0"
     fit-margin-right="0"
     fit-margin-bottom="0"
     inkscape:zoom="33.28"
     inkscape:cx="2.6133699"
     inkscape:cy="7.9399038"
     inkscape:window-x="3840"
     inkscape:window-y="120"
     inkscape:window-maximized="1"
     inkscape:current-layer="Layer_1" /><g
     id="g3"
     transform="matrix(0.03125,0,0,0.03125,-2.2746606,-4.7683719e-7)"><path
       style="fill:#f4a026"
       d="m 392.34,498.454 -271.16,0 c -19.412,0 -35.149,-15.736 -35.149,-35.149 l 0,-204.208 c 0,-19.412 15.736,-35.149 35.149,-35.149 l 271.16,0 c 19.412,0 35.149,15.736 35.149,35.149 l 0,204.208 c 0,19.412 -15.736,35.149 -35.149,35.149 z"
       id="path5"
       inkscape:connector-curvature="0" /><path
       style="fill:#f4a026"
       d="m 380.133,223.949 -49.349,0 0,-102.034 c 0,-33.537 -27.284,-60.821 -60.821,-60.821 l -26.407,0 c -33.537,0 -60.821,27.284 -60.821,60.821 l 0,102.032 -49.349,0 0,-102.032 c 0,-60.748 49.422,-110.17 110.17,-110.17 l 26.407,0 c 60.748,0 110.17,49.422 110.17,110.17 l 0,102.034 z"
       id="path7"
       inkscape:connector-curvature="0" /></g><path
     style="fill:#efefef"
     d="m 7.16053,10.20159 c 0,-0.7807499 -0.63178,-1.41365 -1.4125601,-1.41365 -0.78078,0 -1.4153201,0.6329001 -1.4153201,1.41365 0,0.49619 0.2553501,0.93235 0.6408801,1.18463 l 0,2.41619 1.5421601,0 0,-2.41622 c 0.38556,-0.25228 0.64484,-0.68844 0.64484,-1.1846 z"
     id="path9"
     inkscape:connector-curvature="0" /><path
     d="m 9.9855902,6.6129399 0,-2.8031001 C 9.9855902,1.6989096 8.2726501,-4.7683719e-7 6.1616899,-4.7683719e-7 l -0.82522,0 C 3.2254998,-4.7683719e-7 1.5036197,1.6989096 1.5036197,3.8098398 l 0,2.8031001 C 0.65543962,6.6149399 -4.2325093e-7,7.27994 -4.2325093e-7,8.09681 l 0,6.3815 C -4.2325093e-7,15.2965 0.69393962,16 1.5121897,16 l 8.4737505,0 C 10.80419,16 11.45062,15.2965 11.45062,14.47828 l 0,-6.3815 c 3e-5,-0.81684 -0.6554,-1.4816201 -1.4650298,-1.4838401 z M 2.2747497,3.8098398 c 0,-1.6857502 1.3759701,-3.03878023 3.0617502,-3.03878023 l 0.82522,0 c 1.6857801,0 3.0528102,1.35303003 3.0528102,3.03878023 l 0,2.8214701 -0.77109,0 0,-2.8214701 c 0,-1.2605901 -1.0211001,-2.2676802 -2.2817202,-2.2676802 l -0.82522,0 c -1.2606001,0 -2.2906601,1.0070601 -2.2906601,2.2676802 l 0,2.8214701 -0.7710901,0 0,-2.8214701 z m 1.5421501,2.8214701 0,-2.8214701 c 0,-0.8354301 0.68416,-1.4965901 1.5195701,-1.4965901 l 0.82522,0 c 0.8354301,0 1.5106201,0.66116 1.5106201,1.4965901 l 0,2.8214701 -3.8554102,0 z M 10.67956,14.47828 c 0,0.40394 -0.31916,0.75066 -0.7128698,0.75066 l -8.4826905,0 c -0.3937201,0 -0.71288008,-0.34672 -0.71288008,-0.75066 l 0,-6.36375 c 0,-0.40394 0.31915998,-0.71209 0.71288008,-0.71209 l 8.4826905,0 c 0.3937098,0 0.7128698,0.30815 0.7128698,0.71209 l 0,6.36375 z"
     id="path11"
     inkscape:connector-curvature="0" /><path
     d="m 5.7527799,8.40237 c -0.98903,0 -1.8032801,0.8071301 -1.8032801,1.79922 0,0.53475 0.25297,1.03585 0.6385001,1.37797 l 0,2.20356 c 0,0.21291 0.19187,0.40482 0.40481,0.40482 l 1.5421601,0 c 0.21293,0 0.36625,-0.19194 0.36625,-0.40482 l 0,-2.20421 C 7.32531,11.24041 7.54603,10.73978 7.54603,10.20156 7.54606,9.2095001 6.74697,8.40237 5.7527799,8.40237 Z M 6.31425,11.06356 c -0.1088501,0.0713 -0.1841001,0.19253 -0.1841001,0.32263 l 0,2.03068 -0.77106,0 0,-2.03068 c 0,-0.1301 -0.056,-0.25141 -0.16481,-0.32263 -0.29659,-0.19403 -0.46884,-0.51631 -0.46884,-0.86197 0,-0.5668999 0.46109,-1.0281199 1.02496,-1.0281199 0.5689401,0 1.0281901,0.46122 1.0281901,1.0281199 0,0.35097 -0.17584,0.67319 -0.46434,0.86197 z"
     id="path13"
     inkscape:connector-curvature="0" /><g
     id="g15"
     transform="translate(-250.27369,-248)" /><g
     id="g17"
     transform="translate(-250.27369,-248)" /><g
     id="g19"
     transform="translate(-250.27369,-248)" /><g
     id="g21"
     transform="translate(-250.27369,-248)" /><g
     id="g23"
     transform="translate(-250.27369,-248)" /><g
     id="g25"
     transform="translate(-250.27369,-248)" /><g
     id="g27"
     transform="translate(-250.27369,-248)" /><g
     id="g29"
     transform="translate(-250.27369,-248)" /><g
     id="g31"
     transform="translate(-250.27369,-248)" /><g
     id="g33"
     transform="translate(-250.27369,-248)" /><g
     id="g35"
     transform="translate(-250.27369,-248)" /><g
     id="g37"
     transform="translate(-250.27369,-248)" /><g
     id="g39"
     transform="translate(-250.27369,-248)" /><g
     id="g41"
     transform="translate(-250.27369,-248)" /><g
     id="g43"
     transform="translate(-250.27369,-248)" /><text
     xml:space="preserve"
     style="font-style:normal;font-weight:normal;font-size:8.06151485px;line-height:0%;font-family:sans-serif;letter-spacing:0px;word-spacing:0px;writing-mode:lr-tb;fill:#800000;fill-opacity:1;stroke:none;stroke-width:1px;stroke-linecap:butt;stroke-linejoin:miter;stroke-opacity:1"
     x="9.2300978"
     y="5.9143848"
     id="text4172"
     sodipodi:linespacing="0%"
     transform="scale(1.0279441,0.97281555)"><tspan
       sodipodi:role="line"
       id="tspan4174"
       x="9.2300978"
       y="5.9143848">P</tspan></text>
</svg>