<?xml version="1.0" encoding="UTF-8" standalone="no"?>
<!-- Generator: Adobe Illustrator 19.0.0, SVG Export Plug-In . SVG Version: 6.00 Build 0)  -->

<svg
   xmlns:dc="http://purl.org/dc/elements/1.1/"
   xmlns:cc="http://creativecommons.org/ns#"
   xmlns:rdf="http://www.w3.org/1999/02/22-rdf-syntax-ns#"
   xmlns:svg="http://www.w3.org/2000/svg"
   xmlns="http://www.w3.org/2000/svg"
   xmlns:sodipodi="http://sodipodi.sourceforge.net/DTD/sodipodi-0.dtd"
   xmlns:inkscape="http://www.inkscape.org/namespaces/inkscape"
   version="1.1"
   id="Layer_1"
   x="0px"
   y="0px"
   viewBox="0 0 11.45062 16"
   xml:space="preserve"
   inkscape:version="0.91 r13725"
   sodipodi:docname="protected.svg"
   width="11.45062"
   height="16"
   inkscape:export-filename="/home/rockyc/work/pbs2/pbs/static/img/protected.png"
   inkscape:export-xdpi="90"
   inkscape:export-ydpi="90"><metadata
     id="metadata49"><rdf:RDF><cc:Work
         rdf:about=""><dc:format>image/svg+xml</dc:format><dc:type
           rdf:resource="http://purl.org/dc/dcmitype/StillImage" /><dc:title></dc:title></cc:Work></rdf:RDF></metadata><defs
     id="defs47" /><sodipodi:namedview
     pagecolor="#ffffff"
     bordercolor="#666666"
     borderopacity="1"
     objecttolerance="10"
     gridtolerance="10"
     guidetolerance="10"
     inkscape:pageopacity="0"
     inkscape:pageshadow="2"
     inkscape:window-width="1920"
     inkscape:window-height="1167"
     id="namedview45"
     showgrid="false"
     fit-margin-top="0"
     fit-margin-left="0"
     fit-margin-right="0"
     fit-margin-bottom="0"
     inkscape:zoom="33.28"
     inkscape:cx="2.6133699"
     inkscape:cy="7.9399038"
     inkscape:window-x="3840"
     inkscape:window-y="120"
     inkscape:window-maximized="1"
     inkscape:current-layer="Layer_1" /><g
     id="g3"
     transform="matrix(0.03125,0,0,0.03125,-2.27466,0)"><path
       style="fill:#f4a026"
       d="m 392.34,498.454 -271.16,0 c -19.412,0 -35.149,-15.736 -35.149,-35.149 l 0,-204.208 c 0,-19.412 15.736,-35.149 35.149,-35.149 l 271.16,0 c 19.412,0 35.149,15.736 35.149,35.149 l 0,204.208 c 0,19.412 -15.736,35.149 -35.149,35.149 z"
       id="path5"
       inkscape:connector-curvature="0" /><path
       style="fill:#f4a026"
       d="m 380.133,223.949 -49.349,0 0,-102.034 c 0,-33.537 -27.284,-60.821 -60.821,-60.821 l -26.407,0 c -33.537,0 -60.821,27.284 -60.821,60.821 l 0,102.032 -49.349,0 0,-102.032 c 0,-60.748 49.422,-110.17 110.17,-110.17 l 26.407,0 c 60.748,0 110.17,49.422 110.17,110.17 l 0,102.034 z"
       id="path7"
       inkscape:connector-curvature="0" /></g><path
     style="fill:#efefef"
     d="m 7.16053,10.20159 c 0,-0.78075 -0.63178,-1.41365 -1.41256,-1.41365 -0.78078,0 -1.41532,0.6329 -1.41532,1.41365 0,0.49619 0.25535,0.93235 0.64088,1.18463 l 0,2.41619 1.54216,0 0,-2.41622 c 0.38556,-0.25228 0.64484,-0.68844 0.64484,-1.1846 z"
     id="path9"
     inkscape:connector-curvature="0" /><path
     d="m 9.98559,6.61294 0,-2.8031 C 9.98559,1.69891 8.27265,0 6.16169,0 L 5.33647,0 C 3.2255,0 1.50362,1.69891 1.50362,3.80984 l 0,2.8031 C 0.65544,6.61494 0,7.27994 0,8.09681 l 0,6.3815 C 0,15.2965 0.69394,16 1.51219,16 l 8.47375,0 c 0.81825,0 1.46468,-0.7035 1.46468,-1.52172 l 0,-6.3815 c 3e-5,-0.81684 -0.6554,-1.48162 -1.46503,-1.48384 z M 2.27475,3.80984 c 0,-1.68575 1.37597,-3.03878 3.06175,-3.03878 l 0.82522,0 c 1.68578,0 3.05281,1.35303 3.05281,3.03878 l 0,2.82147 -0.77109,0 0,-2.82147 c 0,-1.26059 -1.0211,-2.26768 -2.28172,-2.26768 l -0.82522,0 c -1.2606,0 -2.29066,1.00706 -2.29066,2.26768 l 0,2.82147 -0.77109,0 0,-2.82147 z m 1.54215,2.82147 0,-2.82147 c 0,-0.83543 0.68416,-1.49659 1.51957,-1.49659 l 0.82522,0 c 0.83543,0 1.51062,0.66116 1.51062,1.49659 l 0,2.82147 -3.85541,0 z m 6.86266,7.84697 c 0,0.40394 -0.31916,0.75066 -0.71287,0.75066 l -8.48269,0 c -0.39372,0 -0.71288,-0.34672 -0.71288,-0.75066 l 0,-6.36375 c 0,-0.40394 0.31916,-0.71209 0.71288,-0.71209 l 8.48269,0 c 0.39371,0 0.71287,0.30815 0.71287,0.71209 l 0,6.36375 z"
     id="path11"
     inkscape:connector-curvature="0" /><path
     d="m 5.75278,8.40237 c -0.98903,0 -1.80328,0.80713 -1.80328,1.79922 0,0.53475 0.25297,1.03585 0.6385,1.37797 l 0,2.20356 c 0,0.21291 0.19187,0.40482 0.40481,0.40482 l 1.54216,0 c 0.21293,0 0.36625,-0.19194 0.36625,-0.40482 l 0,-2.20421 C 7.32531,11.24041 7.54603,10.73978 7.54603,10.20156 7.54606,9.2095 6.74697,8.40237 5.75278,8.40237 Z m 0.56147,2.66119 c -0.10885,0.0713 -0.1841,0.19253 -0.1841,0.32263 l 0,2.03068 -0.77106,0 0,-2.03068 c 0,-0.1301 -0.056,-0.25141 -0.16481,-0.32263 -0.29659,-0.19403 -0.46884,-0.51631 -0.46884,-0.86197 0,-0.5669 0.46109,-1.02812 1.02496,-1.02812 0.56894,0 1.02819,0.46122 1.02819,1.02812 0,0.35097 -0.17584,0.67319 -0.46434,0.86197 z"
     id="path13"
     inkscape:connector-curvature="0" /><g
     id="g15"
     transform="translate(-250.27369,-248)" /><g
     id="g17"
     transform="translate(-250.27369,-248)" /><g
     id="g19"
     transform="translate(-250.27369,-248)" /><g
     id="g21"
     transform="translate(-250.27369,-248)" /><g
     id="g23"
     transform="translate(-250.27369,-248)" /><g
     id="g25"
     transform="translate(-250.27369,-248)" /><g
     id="g27"
     transform="translate(-250.27369,-248)" /><g
     id="g29"
     transform="translate(-250.27369,-248)" /><g
     id="g31"
     transform="translate(-250.27369,-248)" /><g
     id="g33"
     transform="translate(-250.27369,-248)" /><g
     id="g35"
     transform="translate(-250.27369,-248)" /><g
     id="g37"
     transform="translate(-250.27369,-248)" /><g
     id="g39"
     transform="translate(-250.27369,-248)" /><g
     id="g41"
     transform="translate(-250.27369,-248)" /><g
     id="g43"
     transform="translate(-250.27369,-248)" /></svg>